<svg version="1.1" id="Layer_1" xmlns="http://www.w3.org/2000/svg" xmlns:xlink="http://www.w3.org/1999/xlink" x="0px" y="0px"
	 width="100%" viewBox="0 0 108 100" enable-background="new 0 0 108 100" xml:space="preserve">
<path fill="#10100F" opacity="1.000000" stroke="none" 
	d="
M109.000000,4.000001 
	C109.000000,5.066669 109.000000,6.133338 108.712402,7.086005 
	C108.167145,10.944390 107.909492,14.916779 107.651840,18.889168 
	C108.101234,18.592777 108.550613,18.296389 109.000000,18.000000 
	C109.000000,23.022093 109.000000,28.044184 108.759544,33.006001 
	C108.058914,33.231102 107.199440,33.512531 107.196587,33.802425 
	C107.109558,42.609566 107.090225,51.417686 107.171150,60.224640 
	C107.173584,60.488674 108.363647,60.741791 109.000000,61.000000 
	C109.000000,62.388889 109.000000,63.777782 108.794006,65.065384 
	C108.116470,65.980698 107.644928,66.997307 107.076141,68.382309 
	C106.327866,71.168793 105.676819,73.586899 104.765488,76.240067 
	C101.592697,81.311043 98.680176,86.146942 95.767662,90.982849 
	C101.247406,87.398582 105.162315,82.687416 107.015221,75.965309 
	C107.849541,75.772835 108.424774,75.886421 109.000000,76.000000 
	C109.000000,84.256584 109.000000,92.513168 109.000000,101.000000 
	C101.647423,101.000000 94.292450,101.000000 86.550751,100.667946 
	C86.790176,98.882256 87.416321,97.428627 88.042458,95.974991 
	C87.703880,95.694450 87.365303,95.413910 87.026718,95.133369 
	C85.746643,95.902039 84.466560,96.670715 82.788834,97.597206 
	C76.681244,98.498245 70.979286,99.800644 65.259895,99.882355 
	C46.294445,100.153328 27.322710,99.984688 8.353384,99.984680 
	C6.599438,99.984680 4.845491,99.984680 2.937359,99.984680 
	C2.937359,79.333122 2.913608,59.373718 2.967839,39.414532 
	C2.974513,36.958256 3.397664,34.503105 3.754873,31.678455 
	C4.685297,28.972687 5.238921,26.511248 6.332865,24.319489 
	C13.057981,10.845484 24.414577,4.290697 39.509521,2.828786 
	C58.858059,2.903034 77.745979,2.831067 96.632133,2.981542 
	C100.556091,3.012805 104.928993,1.450542 108.250519,5.105561 
	C108.500351,4.737041 108.750175,4.368522 109.000000,4.000001 
M93.763885,94.016121 
	C94.422134,93.054710 95.080383,92.093300 95.738632,91.131889 
	C95.511345,90.934265 95.284058,90.736649 95.056770,90.539032 
	C93.948738,91.357475 92.840706,92.175911 91.161804,93.183105 
	C90.767525,94.067444 90.373245,94.951782 89.978958,95.836121 
	C90.616402,96.370010 91.253853,96.903908 91.891296,97.437805 
	C92.261383,96.396027 92.631470,95.354256 93.763885,94.016121 
M63.112785,61.764374 
	C77.402733,64.820580 88.663765,57.653713 90.438774,43.997353 
	C92.013710,31.880316 79.853279,17.718599 64.188171,22.903919 
	C62.383923,23.742489 60.579678,24.581060 58.160507,25.081896 
	C55.833656,24.041721 53.506802,23.001547 50.217255,21.531019 
	C50.217255,33.444984 50.217255,43.698513 50.217255,54.700405 
	C46.446499,54.099731 43.246357,53.461418 40.015045,53.108318 
	C36.127678,52.683540 34.675648,50.774139 34.871338,46.823990 
	C35.159565,41.005894 34.995705,35.162350 34.931824,29.330660 
	C34.857674,22.561436 31.360720,19.589758 24.100945,20.430462 
	C24.100945,30.007513 24.099672,39.641850 24.101385,49.276184 
	C24.102549,55.831055 24.574827,56.717201 31.282715,57.220108 
	C37.414215,57.679802 43.607330,57.317604 50.577412,57.317604 
	C42.023800,66.080406 32.745369,70.837929 19.691698,69.415688 
	C22.338619,71.706863 23.964556,73.259033 25.735832,74.622375 
	C33.307518,80.450241 35.467754,80.379967 42.165848,73.443710 
	C45.019184,70.488914 47.375446,67.054123 50.056747,63.713947 
	C51.419716,80.177513 52.991856,82.942719 61.232460,82.329323 
	C61.232460,75.589714 61.232460,68.793282 61.779114,61.929180 
	C61.960857,61.903072 62.142597,61.876968 63.112785,61.764374 
z"/>
<path fill="#10100F" opacity="1.000000" stroke="none" 
	d="
M1.000000,27.000000 
	C1.000000,18.405525 1.000000,9.811052 1.000000,1.000000 
	C9.686362,1.000000 18.374519,1.000000 27.892443,1.254061 
	C28.558741,1.791590 28.458368,2.247642 28.222754,2.333787 
	C16.135597,6.753066 7.494001,14.746333 2.655876,26.763611 
	C2.551592,27.022640 1.571523,26.929079 1.000000,27.000000 
z"/>
<path fill="#F2EF7B" opacity="1.000000" stroke="none" 
	d="
M3.627817,32.047436 
	C3.397664,34.503105 2.974513,36.958256 2.967839,39.414532 
	C2.913608,59.373718 2.937359,79.333122 2.937359,99.984680 
	C4.845491,99.984680 6.599438,99.984680 8.353384,99.984680 
	C27.322710,99.984688 46.294445,100.153328 65.259895,99.882355 
	C70.979286,99.800644 76.681244,98.498245 82.837189,98.066422 
	C83.188797,99.251884 83.094398,100.125946 83.000000,101.000000 
	C55.746086,101.000000 28.492170,101.000000 1.000000,101.000000 
	C1.000000,78.312996 1.000000,55.625156 1.328343,32.486053 
	C2.313730,32.039005 2.970773,32.043221 3.627817,32.047436 
z"/>
<path fill="#FFFC81" opacity="1.000000" stroke="none" 
	d="
M109.000000,3.500001 
	C108.750175,4.368522 108.500351,4.737041 108.250519,5.105561 
	C104.928993,1.450542 100.556091,3.012805 96.632133,2.981542 
	C77.745979,2.831067 58.858059,2.903034 39.525955,2.535017 
	C39.054100,1.782656 39.027050,1.391328 39.000000,1.000000 
	C61.333332,1.000000 83.666695,0.987100 105.999931,1.033728 
	C107.269371,1.036378 109.612228,-0.085014 109.000000,3.500001 
z"/>
<path fill="#D9D76E" opacity="1.000000" stroke="none" 
	d="
M38.555836,1.000000 
	C39.027050,1.391328 39.054100,1.782656 39.064713,2.467752 
	C24.414577,4.290697 13.057981,10.845484 6.332865,24.319489 
	C5.238921,26.511248 4.685297,28.972687 3.754873,31.678455 
	C2.970773,32.043221 2.313730,32.039005 1.328343,32.017395 
	C1.000000,30.611111 1.000000,29.222221 1.000000,27.416664 
	C1.571523,26.929079 2.551592,27.022640 2.655876,26.763611 
	C7.494001,14.746333 16.135597,6.753066 28.222754,2.333787 
	C28.458368,2.247642 28.558741,1.791590 28.361105,1.254061 
	C28.444445,1.000000 28.888889,1.000000 29.516102,1.285936 
	C30.132580,1.381248 30.566290,1.190624 31.000000,1.000000 
	C33.370556,1.000000 35.741116,1.000000 38.555836,1.000000 
z"/>
<path fill="#FFFC81" opacity="1.000000" stroke="none" 
	d="
M109.000000,60.531345 
	C108.363647,60.741791 107.173584,60.488674 107.171150,60.224640 
	C107.090225,51.417686 107.109558,42.609566 107.196587,33.802425 
	C107.199440,33.512531 108.058914,33.231102 108.759544,33.472862 
	C109.000000,42.687565 109.000000,51.375126 109.000000,60.531345 
z"/>
<path fill="#F4F17C" opacity="1.000000" stroke="none" 
	d="
M105.025772,76.004990 
	C105.676819,73.586899 106.327866,71.168793 107.303635,68.507614 
	C108.085564,68.509682 108.542786,68.754845 109.000000,69.000000 
	C109.000000,71.041664 109.000000,73.083336 109.000000,75.562500 
	C108.424774,75.886421 107.849541,75.772835 106.814545,75.869270 
	C105.911774,76.054520 105.468773,76.029755 105.025772,76.004990 
z"/>
<path fill="#131310" opacity="1.000000" stroke="none" 
	d="
M83.375000,101.000000 
	C83.094398,100.125946 83.188797,99.251884 83.234833,97.908615 
	C84.466560,96.670715 85.746643,95.902039 87.026718,95.133369 
	C87.365303,95.413910 87.703880,95.694450 88.042458,95.974991 
	C87.416321,97.428627 86.790176,98.882256 86.082016,100.667946 
	C85.250000,101.000000 84.500000,101.000000 83.375000,101.000000 
z"/>
<path fill="#FFFC81" opacity="1.000000" stroke="none" 
	d="
M109.000000,17.545887 
	C108.550613,18.296389 108.101234,18.592777 107.651840,18.889168 
	C107.909492,14.916779 108.167145,10.944390 108.712402,7.486001 
	C109.000000,11.030593 109.000000,14.061185 109.000000,17.545887 
z"/>
<path fill="#FFFC81" opacity="1.000000" stroke="none" 
	d="
M109.000000,68.625000 
	C108.542786,68.754845 108.085564,68.509682 107.400864,68.139221 
	C107.644928,66.997307 108.116470,65.980698 108.794006,65.482040 
	C109.000000,66.750000 109.000000,67.500000 109.000000,68.625000 
z"/>
<path fill="#10100F" opacity="1.000000" stroke="none" 
	d="
M30.750000,1.000000 
	C30.566290,1.190624 30.132580,1.381248 29.849434,1.285936 
	C30.000000,1.000000 30.500000,1.000000 30.750000,1.000000 
z"/>
<path fill="#F6F268" opacity="1.000000" stroke="none" 
	d="
M61.232460,61.996853 
	C61.232460,68.793282 61.232460,75.589714 61.232460,82.329323 
	C52.991856,82.942719 51.419716,80.177513 50.056747,63.713947 
	C47.375446,67.054123 45.019184,70.488914 42.165848,73.443710 
	C35.467754,80.379967 33.307518,80.450241 25.735832,74.622375 
	C23.964556,73.259033 22.338619,71.706863 19.691698,69.415688 
	C32.745369,70.837929 42.023800,66.080406 50.577412,57.317604 
	C43.607330,57.317604 37.414215,57.679802 31.282715,57.220108 
	C24.574827,56.717201 24.102549,55.831055 24.101385,49.276184 
	C24.099672,39.641850 24.100945,30.007513 24.100945,20.430462 
	C31.360720,19.589758 34.857674,22.561436 34.931824,29.330660 
	C34.995705,35.162350 35.159565,41.005894 34.871338,46.823990 
	C34.675648,50.774139 36.127678,52.683540 40.015045,53.108318 
	C43.246357,53.461418 46.446499,54.099731 50.217255,54.700405 
	C50.217255,43.698513 50.217255,33.444984 50.217255,21.531019 
	C53.506802,23.001547 55.833656,24.041721 58.502235,25.622391 
	C59.562088,29.329687 60.774971,32.476566 60.903442,35.667107 
	C61.256439,44.433887 61.154423,53.218998 61.232460,61.996853 
z"/>
<path fill="#11110F" opacity="1.000000" stroke="none" 
	d="
M61.505787,61.963017 
	C61.154423,53.218998 61.256439,44.433887 60.903442,35.667107 
	C60.774971,32.476566 59.562088,29.329687 58.809692,25.791260 
	C60.579678,24.581060 62.383923,23.742489 64.676086,23.274986 
	C65.450531,23.806961 65.718773,24.043402 66.026237,24.117884 
	C77.863953,26.985558 79.745293,36.352013 79.008568,45.299000 
	C78.340294,53.414722 73.145470,58.335831 63.493404,60.235363 
	C63.016220,60.329273 62.710110,61.292454 62.324341,61.850868 
	C62.142597,61.876968 61.960857,61.903072 61.505787,61.963017 
z"/>
<path fill="#F5F168" opacity="1.000000" stroke="none" 
	d="
M62.718563,61.807621 
	C62.710110,61.292454 63.016220,60.329273 63.493404,60.235363 
	C73.145470,58.335831 78.340294,53.414722 79.008568,45.299000 
	C79.745293,36.352013 77.863953,26.985558 66.026237,24.117884 
	C65.718773,24.043402 65.450531,23.806961 64.991455,23.322784 
	C79.853279,17.718599 92.013710,31.880316 90.438774,43.997353 
	C88.663765,57.653713 77.402733,64.820580 62.718563,61.807621 
z"/>
<path fill="#D7D56D" opacity="1.000000" stroke="none" 
	d="
M104.765488,76.240067 
	C105.468773,76.029755 105.911774,76.054520 106.555450,76.175323 
	C105.162315,82.687416 101.247406,87.398582 95.767662,90.982849 
	C98.680176,86.146942 101.592697,81.311043 104.765488,76.240067 
z"/>
<path fill="#131310" opacity="1.000000" stroke="none" 
	d="
M93.001541,94.312462 
	C92.631470,95.354256 92.261383,96.396027 91.891296,97.437805 
	C91.253853,96.903908 90.616402,96.370010 89.978958,95.836121 
	C90.373245,94.951782 90.767525,94.067444 91.552887,93.390686 
	C92.296486,93.836334 92.649002,94.074394 93.001541,94.312462 
z"/>
<path fill="#D7D56D" opacity="1.000000" stroke="none" 
	d="
M93.382706,94.164284 
	C92.649002,94.074394 92.296486,93.836334 91.838318,93.296310 
	C92.840706,92.175911 93.948738,91.357475 95.056770,90.539032 
	C95.284058,90.736649 95.511345,90.934265 95.738632,91.131889 
	C95.080383,92.093300 94.422134,93.054710 93.382706,94.164284 
z"/>
</svg>